<svg width="1381" height="1381" viewBox="0 0 1381 1381" fill="none" xmlns="http://www.w3.org/2000/svg">
<circle cx="690.5" cy="690.5" r="690" fill="#996247" stroke="black"/>
<path d="M653.185 762.223C702.612 757.654 778.431 843 767.415 885.624C766.054 930.76 712.729 1016.84 674.815 1013.35C648.053 1031.22 546.246 891.391 550.51 852.165C556.378 798.185 614.488 757.92 653.185 762.223Z" fill="#FE9193"/>
<g filter="url(#filter0_n_15_365)">
<ellipse cx="258.5" cy="780" rx="106.5" ry="108" fill="#8E4A2C"/>
</g>
<g filter="url(#filter1_n_15_365)">
<ellipse cx="1096.5" cy="812" rx="106.5" ry="108" fill="#8E4A2C"/>
</g>
<ellipse cx="412.5" cy="598" rx="60.5" ry="61" fill="#010101"/>
<ellipse cx="952.5" cy="611" rx="60.5" ry="61" fill="#010101"/>
<path d="M845 755.84C845 795.605 718.21 848 679.258 848C640.306 848 498 795.605 498 755.84C498 716.075 640.306 704 679.258 704C718.21 704 845 716.075 845 755.84Z" fill="#D49C86"/>
<path d="M920.116 821.367C930.024 870.546 854.295 956.073 811.123 949.659C766.535 953.222 675.944 909.033 675.236 870.546C654.711 845.6 781.236 728 820.324 728C874.112 728 920.116 782.005 920.116 821.367Z" fill="#D49C86"/>
<path d="M673.567 865.589C658.777 901.308 577.782 959.886 538.34 945.598C506.647 965.601 406.635 855.588 441.146 803.439C441.146 763.985 531.137 717 570.034 717C608.932 717 698.923 852.73 673.567 865.589Z" fill="#D49C86"/>
<path d="M753 712C753 728.174 710.188 772 683.786 772C657.385 772 616 728.174 616 712C630.271 672 653.818 672 683.786 672C701.126 672 735.875 672 753 712Z" fill="#010101"/>
<path d="M1255 345.469C1255 389.691 1212.1 492 1168.04 492C1123.99 492 1042 355.262 1042 311.04C1042 266.818 1162.72 267 1206.78 267C1250.84 267 1255 301.247 1255 345.469Z" fill="#E09D91"/>
<path d="M379.322 284.977C320.04 310.756 216.574 435.618 173.207 478.572C158.074 443.812 167.67 352.884 176.79 296.828C185.91 240.771 216.801 228.325 272.725 237.424C328.649 246.522 365.101 270.164 379.322 284.977Z" fill="#E09D91"/>
<defs>
<filter id="filter0_n_15_365" x="152" y="672" width="213" height="216" filterUnits="userSpaceOnUse" color-interpolation-filters="sRGB">
<feFlood flood-opacity="0" result="BackgroundImageFix"/>
<feBlend mode="normal" in="SourceGraphic" in2="BackgroundImageFix" result="shape"/>
<feTurbulence type="fractalNoise" baseFrequency="2 2" stitchTiles="stitch" numOctaves="3" result="noise" seed="3145" />
<feColorMatrix in="noise" type="luminanceToAlpha" result="alphaNoise" />
<feComponentTransfer in="alphaNoise" result="coloredNoise1">
<feFuncA type="discrete" tableValues="1 1 1 1 1 1 1 1 1 1 1 1 1 1 1 1 1 1 1 1 1 1 1 1 1 1 1 1 1 1 1 1 1 1 1 1 1 1 1 1 1 1 1 1 1 1 1 1 1 1 1 0 0 0 0 0 0 0 0 0 0 0 0 0 0 0 0 0 0 0 0 0 0 0 0 0 0 0 0 0 0 0 0 0 0 0 0 0 0 0 0 0 0 0 0 0 0 0 0 0 "/>
</feComponentTransfer>
<feComposite operator="in" in2="shape" in="coloredNoise1" result="noise1Clipped" />
<feFlood flood-color="rgba(0, 0, 0, 0.25)" result="color1Flood" />
<feComposite operator="in" in2="noise1Clipped" in="color1Flood" result="color1" />
<feMerge result="effect1_noise_15_365">
<feMergeNode in="shape" />
<feMergeNode in="color1" />
</feMerge>
</filter>
<filter id="filter1_n_15_365" x="990" y="704" width="213" height="216" filterUnits="userSpaceOnUse" color-interpolation-filters="sRGB">
<feFlood flood-opacity="0" result="BackgroundImageFix"/>
<feBlend mode="normal" in="SourceGraphic" in2="BackgroundImageFix" result="shape"/>
<feTurbulence type="fractalNoise" baseFrequency="2 2" stitchTiles="stitch" numOctaves="3" result="noise" seed="4677" />
<feColorMatrix in="noise" type="luminanceToAlpha" result="alphaNoise" />
<feComponentTransfer in="alphaNoise" result="coloredNoise1">
<feFuncA type="discrete" tableValues="1 1 1 1 1 1 1 1 1 1 1 1 1 1 1 1 1 1 1 1 1 1 1 1 1 1 1 1 1 1 1 1 1 1 1 1 1 1 1 1 1 1 1 1 1 1 1 1 1 1 1 0 0 0 0 0 0 0 0 0 0 0 0 0 0 0 0 0 0 0 0 0 0 0 0 0 0 0 0 0 0 0 0 0 0 0 0 0 0 0 0 0 0 0 0 0 0 0 0 0 "/>
</feComponentTransfer>
<feComposite operator="in" in2="shape" in="coloredNoise1" result="noise1Clipped" />
<feFlood flood-color="rgba(0, 0, 0, 0.25)" result="color1Flood" />
<feComposite operator="in" in2="noise1Clipped" in="color1Flood" result="color1" />
<feMerge result="effect1_noise_15_365">
<feMergeNode in="shape" />
<feMergeNode in="color1" />
</feMerge>
</filter>
</defs>
</svg>
